<svg xmlns="http://www.w3.org/2000/svg" fill="none" viewBox="0 0 24 24" height="24" width="24">
    <g clip-path="url(#clip0_814_42624)">
    <path fill="currentColor" d="M16.3462 3.5956C16.4605 3.5956 16.5531 3.50297 16.5531 3.38871C16.5531 3.27444 16.4605 3.18181 16.3462 3.18181H15.0359C14.9216 3.18181 14.829 3.27444 14.829 3.38871C14.829 3.50297 14.9216 3.5956 15.0359 3.5956H16.3462Z"></path>
    <path fill="currentColor" d="M21.6552 8.55172C21.6552 8.43746 21.5625 8.34483 21.4483 8.34483C21.334 8.34483 21.2414 8.43746 21.2414 8.55172V9.86207C21.2414 9.97634 21.334 10.069 21.4483 10.069C21.5625 10.069 21.6552 9.97634 21.6552 9.86207V8.55172Z"></path>
    <path fill="currentColor" d="M19.9905 7.97325C20.0992 8.00856 20.1587 8.12528 20.1234 8.23395L19.7184 9.48017C19.6831 9.58884 19.5664 9.64831 19.4577 9.613C19.3491 9.57769 19.2896 9.46097 19.3249 9.3523L19.7298 8.10608C19.7651 7.99741 19.8819 7.93794 19.9905 7.97325Z"></path>
    <path fill="currentColor" d="M18.9027 7.73418C18.9698 7.64174 18.9493 7.51235 18.8569 7.44519C18.7645 7.37803 18.6351 7.39852 18.5679 7.49096L17.7977 8.55105C17.7305 8.6435 17.751 8.77288 17.8435 8.84005C17.9359 8.90721 18.0653 8.88672 18.1325 8.79427L18.9027 7.73418Z"></path>
    <path fill="currentColor" d="M17.8563 6.56753C17.9371 6.64833 17.9371 6.77933 17.8563 6.86013L16.9298 7.78668C16.849 7.86748 16.718 7.86748 16.6372 7.78668C16.5564 7.70588 16.5564 7.57488 16.6372 7.49409L17.5637 6.56753C17.6445 6.48673 17.7755 6.48673 17.8563 6.56753Z"></path>
    <path fill="currentColor" d="M16.9012 5.80672C16.9991 5.74787 17.0308 5.62076 16.972 5.52281C16.9131 5.42487 16.786 5.39318 16.6881 5.45203L15.5649 6.1269C15.4669 6.18576 15.4353 6.31286 15.4941 6.41081C15.553 6.50875 15.6801 6.54045 15.778 6.48159L16.9012 5.80672Z"></path>
    <path fill="currentColor" d="M16.663 4.51945C16.6925 4.62982 16.627 4.74327 16.5167 4.77285L15.251 5.11199C15.1406 5.14156 15.0271 5.07606 14.9976 4.96569C14.968 4.85532 15.0335 4.74187 15.1439 4.7123L16.4096 4.37315C16.5199 4.34358 16.6334 4.40908 16.663 4.51945Z"></path>
    <path fill="currentColor" d="M24 12C24 18.6274 18.6274 24 12 24C5.37258 24 0 18.6274 0 12C0 5.37258 5.37258 0 12 0C18.6274 0 24 5.37258 24 12ZM19.0924 20.2727C17.1863 21.9083 14.7086 22.8966 12 22.8966C9.34847 22.8966 6.91813 21.9495 5.02881 20.3752C5.5029 19.6631 6.2557 18.7783 7.25557 18.0126C8.52583 17.0399 10.1725 16.2759 12.1379 16.2759C15.7777 16.2759 18.1676 18.7525 19.0924 20.2727ZM20.4925 18.8279C20.6735 18.603 20.8458 18.3709 21.0088 18.1319C20.0268 18.0838 19.3324 18.2575 18.9119 18.4365C19.0805 18.6237 19.2353 18.8097 19.376 18.9912C19.4495 18.9543 19.5268 18.9247 19.6045 18.9021C19.8362 18.8345 20.1283 18.806 20.4925 18.8279ZM21.573 17.2094C21.6579 17.0537 21.7391 16.8956 21.8166 16.7354C20.0669 16.5134 18.5827 16.8868 17.6714 17.2721C17.8544 17.4169 18.0285 17.5652 18.1937 17.7152C18.8335 17.3493 19.9744 17.0324 21.573 17.2094ZM22.2096 15.8161C19.8002 15.438 17.7868 16.0865 16.765 16.6356C16.7053 16.5987 16.6448 16.5622 16.5837 16.5263L16.7492 15.2951L16.8199 15.305C17.1216 15.3473 17.4006 15.1371 17.4429 14.8353C17.4853 14.5336 17.275 14.2546 16.9732 14.2123L13.2156 13.6849L11.0674 11.6668C10.8453 11.4582 10.4962 11.4691 10.2875 11.6912C10.0789 11.9133 10.0898 12.2625 10.3119 12.4711L10.8298 12.9576L10.3529 15.5009C10.2829 15.516 10.2133 15.532 10.1442 15.5488L8.52414 9.23616C8.88282 9.50195 9.27811 9.74192 9.6735 9.95356C10.6245 10.4626 11.6283 10.8348 12.2668 11.0232L12.5956 11.1202L12.62 10.7783C12.6379 10.5279 12.5707 10.2473 12.4722 9.97637C12.3717 9.70025 12.2289 9.40862 12.0718 9.1275C11.891 8.80392 11.6869 8.48671 11.4967 8.2127L13.4483 8.44925V8.13793C13.4483 7.50897 13.0215 6.85524 12.5381 6.38071C12.2898 6.13703 12.0113 5.92505 11.7345 5.77242C11.4624 5.62242 11.1691 5.51724 10.8965 5.51724H9.78257L10.2653 4.27586H9.86206C9.02737 4.27586 8.38089 4.65139 7.9202 5.1052C7.59085 5.42963 7.34999 5.7997 7.19358 6.119C7.05369 6.02356 6.8886 5.92272 6.70948 5.83167C6.38233 5.66537 5.98035 5.51724 5.58621 5.51724C4.85138 5.51724 4.12804 5.8674 3.85189 6.04313L3.6252 6.18738L3.76345 6.41779C3.82457 6.51966 3.91762 6.6194 4.01124 6.70744C4.10819 6.7986 4.22077 6.891 4.33409 6.97771C4.3731 7.00756 4.41259 7.03703 4.45201 7.06585C3.78353 7.37912 3.37285 8.06465 3.1288 8.77405C2.8122 9.69437 2.73506 10.7579 2.75878 11.4576L2.77884 12.0495L4.76901 10.2583C4.77412 10.6478 4.8261 11.073 4.89537 11.476C5.01444 12.1687 5.19348 12.8429 5.32304 13.2551L5.43838 13.6221L5.74898 13.3951C6.54203 12.8156 7.04637 11.7467 7.36229 10.7041C7.54495 10.1013 7.67038 9.48761 7.75095 8.94445C7.88127 9.67377 7.96163 10.3969 8.0043 11.0947C8.11245 12.8628 7.9786 14.4677 7.80255 15.5952C7.73974 15.9975 7.67155 16.339 7.60707 16.6055C7.58316 16.6199 7.55934 16.6344 7.53563 16.649C6.48588 16.0776 4.35072 15.3879 1.80707 15.8605C1.35235 14.6605 1.10345 13.3593 1.10345 12C1.10345 5.982 5.982 1.10345 12 1.10345C13.9265 1.10345 15.7362 1.60338 17.3064 2.48057C17.2176 2.9736 17.175 3.61057 17.2687 4.26183C17.3909 5.11142 17.7546 6.03929 18.6117 6.66565C19.8452 7.56701 21.1375 7.70218 21.9766 7.61119C22.5681 8.95388 22.8966 10.4386 22.8966 12C22.8966 13.3426 22.6537 14.6284 22.2096 15.8161ZM21.5063 6.67015C20.6938 5.22399 19.5608 3.98203 18.2036 3.04053C18.1722 3.37012 18.17 3.74607 18.2244 4.12439C18.324 4.81733 18.604 5.46417 19.1814 5.8861C20.0213 6.49985 20.8826 6.66752 21.5063 6.67015ZM2.20132 16.7723C2.27875 16.931 2.35993 17.0875 2.44473 17.2418C4.18693 16.9978 5.41968 17.3329 6.09133 17.7205C6.26102 17.5711 6.43861 17.4239 6.62392 17.2804C5.67024 16.8734 4.07541 16.475 2.20132 16.7723ZM3.00337 18.1496C3.16824 18.3904 3.34253 18.6242 3.5257 18.8505C4.01278 18.7952 4.38739 18.8193 4.67133 18.9021C4.73878 18.9217 4.80593 18.9466 4.87051 18.977C5.01983 18.7972 5.18103 18.6148 5.35385 18.4322C4.89527 18.2391 4.11752 18.0542 3.00337 18.1496ZM7.57113 6.64165C7.67399 6.34336 7.91841 5.88141 8.30738 5.49825C8.60628 5.20381 8.98293 4.96257 9.44261 4.8692L9.0598 5.85357L7.47406 6.92317L7.57113 6.64165ZM9.33579 6.16654C9.37246 6.14181 9.39868 6.10738 9.41334 6.06897H10.8965C11.0378 6.06897 11.2359 6.12758 11.4681 6.25559C11.6956 6.38099 11.9343 6.56124 12.1516 6.77446C12.4888 7.10545 12.7408 7.48153 12.8445 7.82031L10.6587 7.55536C10.6526 7.49517 10.6204 7.43815 10.5657 7.40258C10.0428 7.06213 9.54661 6.88024 9.10757 6.79913C9.30807 6.77763 9.50968 6.77044 9.70817 6.77448C10.4068 6.78872 11.0441 6.94194 11.4109 7.0761C11.5182 7.11535 11.637 7.06018 11.6763 6.95286C11.7155 6.84555 11.6604 6.72674 11.553 6.68749C11.1468 6.53891 10.4645 6.37601 9.7166 6.36077C9.48281 6.35601 9.24038 6.36564 8.99651 6.39539L9.33579 6.16654ZM7.60189 7.33124L7.82606 7.72579C7.88575 7.83084 7.95738 7.93474 8.03948 8.0372L8.28685 8.31155C8.70968 8.73372 9.29623 9.12582 9.93387 9.46713C10.6642 9.85805 11.4298 10.1659 12.0182 10.3653C12.001 10.3029 11.9795 10.2361 11.9537 10.165C11.8668 9.92619 11.7389 9.66264 11.5902 9.39664C11.2929 8.86464 10.9256 8.3456 10.6796 8.0325L10.4819 7.78081C10.434 7.78761 10.3836 7.77778 10.3399 7.74934C9.56149 7.2425 8.87091 7.13355 8.38488 7.16413C8.3984 7.17119 8.41191 7.17835 8.42542 7.18558C8.70447 7.33505 9.01482 7.53827 9.32385 7.75983C9.94241 8.20332 10.572 8.73205 10.9636 9.08423C11.0486 9.16063 11.0555 9.29145 10.9791 9.37641C10.9027 9.46138 10.7719 9.46832 10.6869 9.39191C10.3033 9.04693 9.68576 8.52846 9.08274 8.09612C8.78097 7.87977 8.48689 7.68792 8.23004 7.55034C7.964 7.40784 7.76869 7.34086 7.65418 7.33888C7.63616 7.33856 7.61863 7.33593 7.60189 7.33124ZM12.8494 14.7477L16.3394 15.2376L16.1952 16.3103C15.2159 15.7966 14.0724 15.425 12.7708 15.3326L12.8494 14.7477ZM11.1877 13.2938L12.4659 14.4946L12.356 15.313C12.2837 15.3112 12.2111 15.3103 12.1379 15.3103C11.6715 15.3103 11.2218 15.3484 10.7894 15.4184L11.1877 13.2938ZM7.35702 6.95259L7.35279 7.03448H5.40567L5.24803 6.93747C5.10493 6.84941 4.87839 6.69948 4.66936 6.53954C4.58673 6.47631 4.50885 6.41305 4.44093 6.35273C4.73917 6.21528 5.17015 6.06897 5.58621 6.06897C5.85413 6.06897 6.16479 6.17371 6.45948 6.3235C6.75014 6.47125 6.99795 6.64876 7.13215 6.76231L7.35702 6.95259ZM5.37931 7.44828C5.35012 7.44828 5.32234 7.44223 5.29716 7.43133L5.1292 7.44707C4.41424 7.5141 3.94259 8.10453 3.65052 8.95353C3.4427 9.55763 3.346 10.2422 3.31663 10.8232L5.03716 9.27473C5.03104 9.23748 5.03504 9.19811 5.05084 9.16077C5.29396 8.58612 5.60366 8.15783 5.92229 7.84507C5.74403 7.93938 5.57285 8.04616 5.41054 8.16051C4.83928 8.56301 4.39665 9.04639 4.16757 9.36273C4.10055 9.45527 3.9712 9.47597 3.87865 9.40895C3.7861 9.34194 3.76541 9.21258 3.83242 9.12003C4.08611 8.7697 4.56072 8.25309 5.17221 7.82225C5.36337 7.68756 5.56974 7.55999 5.78856 7.44828H5.37931ZM5.46911 9.2366L5.37198 9.64939C5.27554 10.0593 5.32281 10.7059 5.43912 11.3826C5.51951 11.8503 5.62882 12.3106 5.7295 12.6791C6.21447 12.1714 6.57747 11.3916 6.83427 10.5441C7.13884 9.53902 7.27719 8.49603 7.31072 7.84782L7.32459 7.57972C7.24968 7.66777 7.16337 7.79995 7.06983 7.97718C6.93383 8.23487 6.7973 8.55836 6.66811 8.90648C6.40994 9.60211 6.18792 10.3772 6.06279 10.8778C6.03508 10.9886 5.92275 11.056 5.81189 11.0283C5.70104 11.0006 5.63364 10.8883 5.66135 10.7774C5.78909 10.2664 6.01535 9.47607 6.28017 8.7625C6.41247 8.40602 6.55612 8.064 6.70388 7.78404C6.71104 7.77048 6.71824 7.75699 6.72549 7.74358C6.31965 7.9817 5.82833 8.43458 5.46911 9.2366Z" clip-rule="evenodd" fill-rule="evenodd"></path>
    </g>
    <defs>
    <clipPath id="clip0_814_42624">
    <rect fill="white" height="24" width="24"></rect>
    </clipPath>
    </defs>
</svg>
