<svg width="300" height="58" viewBox="0 0 300 58" fill="none" xmlns="http://www.w3.org/2000/svg">
<path d="M22.728 57.28C21.2773 57.28 19.8693 56.896 18.504 56.128C17.224 55.4453 16.328 54.3787 15.816 52.928L0.456 10.048C0.285333 9.36533 0.2 8.81067 0.2 8.384C0.2 7.104 0.626667 6.08 1.48 5.312C2.33333 4.544 3.31467 4.16 4.424 4.16C5.192 4.16 5.96 4.33066 6.728 4.672C7.58133 5.01333 8.22133 5.65333 8.648 6.592L21.576 44.352C21.832 45.0347 22.2587 45.376 22.856 45.376C23.4533 45.376 23.88 45.0347 24.136 44.352L37.832 6.592C38.2587 5.65333 38.856 5.01333 39.624 4.672C40.4773 4.33066 41.288 4.16 42.056 4.16C43.1653 4.16 44.1467 4.544 45 5.312C45.8533 6.08 46.28 7.104 46.28 8.384C46.28 8.81067 46.1947 9.36533 46.024 10.048L29.64 52.928C29.0427 54.3787 28.104 55.4453 26.824 56.128C25.544 56.896 24.1787 57.28 22.728 57.28ZM57.85 57.28C56.7407 57.28 55.7167 56.9387 54.778 56.256C53.9247 55.5733 53.498 54.592 53.498 53.312V22.592C53.498 21.1413 53.9247 20.0747 54.778 19.392C55.7167 18.624 56.7407 18.24 57.85 18.24C58.9593 18.24 59.9407 18.624 60.794 19.392C61.7327 20.0747 62.202 21.1413 62.202 22.592V53.312C62.202 54.592 61.7327 55.5733 60.794 56.256C59.9407 56.9387 58.9593 57.28 57.85 57.28ZM57.978 11.2C56.3567 11.2 54.9487 10.688 53.754 9.664C52.6447 8.55466 52.09 7.232 52.09 5.696C52.09 4.24533 52.6447 3.008 53.754 1.984C54.9487 0.874663 56.3567 0.319996 57.978 0.319996C59.514 0.319996 60.8367 0.874663 61.946 1.984C63.0553 3.008 63.61 4.24533 63.61 5.696C63.61 7.232 63.0553 8.55466 61.946 9.664C60.8367 10.688 59.514 11.2 57.978 11.2ZM85.932 57.28C83.4573 57.28 80.94 56.9387 78.38 56.256C75.82 55.6587 73.5587 54.6773 71.596 53.312C70.572 52.3733 70.06 51.3493 70.06 50.24C70.06 49.1307 70.4867 48.1493 71.34 47.296C72.2787 46.4427 73.3027 46.016 74.412 46.016C75.0093 46.016 75.6067 46.1867 76.204 46.528C77.74 47.4667 79.4893 48.2347 81.452 48.832C83.5 49.344 85.42 49.6 87.212 49.6C88.9187 49.6 90.3693 49.3013 91.564 48.704C92.844 48.1067 93.484 47.1253 93.484 45.76C93.484 44.3947 92.8867 43.3707 91.692 42.688C90.4973 42.0053 88.4493 41.4933 85.548 41.152C84.3533 40.9813 82.9027 40.768 81.196 40.512C79.5747 40.256 77.9533 39.7867 76.332 39.104C74.7107 38.4213 73.3453 37.3973 72.236 36.032C71.1267 34.6667 70.572 32.832 70.572 30.528C70.572 26.7733 71.9373 23.7867 74.668 21.568C77.484 19.3493 81.2387 18.24 85.932 18.24C88.6627 18.24 91.2227 18.5813 93.612 19.264C96.0867 19.9467 97.9213 20.8 99.116 21.824C100.055 22.592 100.524 23.488 100.524 24.512C100.524 25.6213 100.14 26.6027 99.372 27.456C98.604 28.3093 97.6653 28.736 96.556 28.736C95.9587 28.736 95.404 28.608 94.892 28.352C93.5267 27.584 91.9907 27.0293 90.284 26.688C88.6627 26.2613 87.084 26.048 85.548 26.048C83.756 26.048 82.22 26.3467 80.94 26.944C79.7453 27.456 79.148 28.3093 79.148 29.504C79.148 30.3573 79.4893 31.1253 80.172 31.808C80.94 32.4053 82.86 32.9173 85.932 33.344C87.3827 33.5147 89.004 33.7707 90.796 34.112C92.6733 34.4533 94.4653 35.008 96.172 35.776C97.8787 36.4587 99.2867 37.568 100.396 39.104C101.505 40.64 102.06 42.7307 102.06 45.376C102.06 48.1067 101.292 50.368 99.756 52.16C98.22 53.8667 96.2147 55.1467 93.74 56C91.3507 56.8533 88.748 57.28 85.932 57.28ZM136.241 22.464C136.241 21.2693 136.625 20.288 137.393 19.52C138.246 18.6667 139.313 18.24 140.593 18.24C141.788 18.24 142.812 18.6667 143.665 19.52C144.518 20.288 144.945 21.2693 144.945 22.464V40.512C144.945 44.352 144.092 47.5093 142.385 49.984C140.678 52.4587 138.46 54.2933 135.729 55.488C132.998 56.6827 130.097 57.28 127.025 57.28C123.953 57.28 121.052 56.6827 118.321 55.488C115.59 54.2933 113.372 52.4587 111.665 49.984C109.958 47.5093 109.105 44.352 109.105 40.512V22.464C109.105 21.2693 109.489 20.288 110.257 19.52C111.11 18.6667 112.177 18.24 113.457 18.24C114.652 18.24 115.676 18.6667 116.529 19.52C117.382 20.288 117.809 21.2693 117.809 22.464V40.512C117.809 43.6693 118.748 45.9307 120.625 47.296C122.502 48.6613 124.636 49.344 127.025 49.344C129.5 49.344 131.633 48.6613 133.425 47.296C135.302 45.9307 136.241 43.6693 136.241 40.512V22.464ZM158.847 57.28C157.738 57.28 156.714 56.9387 155.775 56.256C154.922 55.5733 154.495 54.592 154.495 53.312V4.672C154.495 3.22133 154.922 2.15466 155.775 1.472C156.714 0.703996 157.738 0.319996 158.847 0.319996C159.956 0.319996 160.938 0.703996 161.791 1.472C162.73 2.15466 163.199 3.22133 163.199 4.672V53.312C163.199 54.592 162.73 55.5733 161.791 56.256C160.938 56.9387 159.956 57.28 158.847 57.28ZM178.225 57.28C177.116 57.28 176.092 56.9387 175.153 56.256C174.3 55.5733 173.873 54.592 173.873 53.312V22.592C173.873 21.1413 174.3 20.0747 175.153 19.392C176.092 18.624 177.116 18.24 178.225 18.24C179.334 18.24 180.316 18.624 181.169 19.392C182.108 20.0747 182.577 21.1413 182.577 22.592V53.312C182.577 54.592 182.108 55.5733 181.169 56.256C180.316 56.9387 179.334 57.28 178.225 57.28ZM178.353 11.2C176.732 11.2 175.324 10.688 174.129 9.664C173.02 8.55466 172.465 7.232 172.465 5.696C172.465 4.24533 173.02 3.008 174.129 1.984C175.324 0.874663 176.732 0.319996 178.353 0.319996C179.889 0.319996 181.212 0.874663 182.321 1.984C183.43 3.008 183.985 4.24533 183.985 5.696C183.985 7.232 183.43 8.55466 182.321 9.664C181.212 10.688 179.889 11.2 178.353 11.2ZM197.347 57.28C196.238 57.28 195.214 56.9387 194.275 56.256C193.422 55.5733 192.995 54.592 192.995 53.312V23.232C192.995 21.7813 193.422 20.7147 194.275 20.032C195.214 19.264 196.238 18.88 197.347 18.88C198.2 18.88 199.011 19.0933 199.779 19.52C200.547 19.8613 201.102 20.5013 201.443 21.44C201.614 21.952 201.699 22.4213 201.699 22.848C202.979 21.4827 204.643 20.3733 206.691 19.52C208.739 18.6667 210.744 18.24 212.707 18.24C218.254 18.24 222.35 20.4587 224.995 24.896C226.019 23.104 227.683 21.568 229.987 20.288C232.376 18.9227 235.278 18.24 238.691 18.24C243.299 18.24 246.968 19.776 249.699 22.848C252.43 25.92 253.795 30.4427 253.795 36.416V53.312C253.795 54.592 253.326 55.5733 252.387 56.256C251.448 56.9387 250.467 57.28 249.443 57.28C248.334 57.28 247.31 56.9387 246.371 56.256C245.518 55.5733 245.091 54.592 245.091 53.312V37.184C245.091 29.8453 242.36 26.176 236.899 26.176C233.827 26.176 231.608 26.9867 230.243 28.608C228.878 30.2293 228.024 32.1493 227.683 34.368V53.312C227.683 54.592 227.214 55.5733 226.275 56.256C225.336 56.9387 224.355 57.28 223.331 57.28C222.222 57.28 221.198 56.9387 220.259 56.256C219.406 55.5733 218.979 54.592 218.979 53.312V37.184C218.979 33.4293 218.254 30.656 216.803 28.864C215.352 27.072 213.39 26.176 210.915 26.176C207.246 26.176 204.771 27.328 203.491 29.632C202.296 31.8507 201.699 34.3253 201.699 37.056V53.312C201.699 54.592 201.23 55.5733 200.291 56.256C199.438 56.9387 198.456 57.28 197.347 57.28ZM279.882 57.28C276.213 57.28 272.927 56.4267 270.026 54.72C267.125 53.0133 264.863 50.6667 263.242 47.68C261.621 44.608 260.81 41.1947 260.81 37.44C260.81 33.7707 261.621 30.4853 263.242 27.584C264.863 24.6827 267.125 22.4213 270.026 20.8C272.927 19.0933 276.213 18.24 279.882 18.24C282.271 18.24 284.405 18.6667 286.282 19.52C288.159 20.288 289.781 21.312 291.146 22.592C291.317 21.3973 291.829 20.5013 292.682 19.904C293.535 19.2213 294.474 18.88 295.498 18.88C296.607 18.88 297.589 19.264 298.442 20.032C299.381 20.7147 299.85 21.7813 299.85 23.232V53.312C299.85 54.592 299.381 55.5733 298.442 56.256C297.589 56.9387 296.607 57.28 295.498 57.28C294.389 57.28 293.365 56.9387 292.426 56.256C291.573 55.5733 291.146 54.592 291.146 53.312V52.8C289.781 54.1653 288.159 55.232 286.282 56C284.405 56.8533 282.271 57.28 279.882 57.28ZM280.65 49.344C283.893 49.344 286.453 48.2773 288.33 46.144C290.207 43.9253 291.146 41.024 291.146 37.44C291.146 34.0267 290.207 31.296 288.33 29.248C286.453 27.2 283.893 26.176 280.65 26.176C277.322 26.176 274.634 27.2 272.586 29.248C270.538 31.296 269.514 34.0267 269.514 37.44C269.514 41.024 270.538 43.9253 272.586 46.144C274.634 48.2773 277.322 49.344 280.65 49.344Z" fill="current-color"/>
</svg>
